<?xml version="1.0" encoding="UTF-8"?>
<svg id="Layer_1" data-name="Layer 1" xmlns="http://www.w3.org/2000/svg" width="5.59in" height="5.07in" viewBox="0 0 402.66 364.98">
  <defs>
    <style>
      .cls-1 {
        fill: #13131d;
      }

      .cls-2 {
        fill: #ddc062;
      }
    </style>
  </defs>
  <rect class="cls-1" width="402.66" height="364.98"/>
  <g>
    <path class="cls-2" d="M149.16,108.8l22.64-.03s9.5-7.94,32.04-8.27c22.54-.33,34.15,8.3,34.15,8.3h21.79s-23.64-21.01-56.83-20.23c-33.19.79-53.79,20.23-53.79,20.23"/>
    <path class="cls-2" d="M180.01,253.67l-10.01-16.92s-15.43-6.43-27.4-25.52c-11.98-19.1-10.62-36.82-10.62-36.82l-11.3-16.58s-6.82,33.49,11.07,61.45c17.88,27.97,48.26,34.39,48.26,34.39"/>
    <path class="cls-2" d="M230.23,254.99l9.36-17.04s19.32-9.38,30.1-29.18c10.78-19.79,8.33-37.4,8.33-37.4l10.26-17.24s8.86,33.01-7.28,62.02c-16.14,29.01-50.78,38.84-50.78,38.84"/>
    <polygon class="cls-2" points="166.27 120.07 160.04 130.93 172.64 130.93 153.52 166.49 131.98 130.93 144.45 130.93 137.86 120.15 112.12 120.17 153.35 188.19 192.31 120.15 166.27 120.07"/>
    <polygon class="cls-2" points="201.13 120.07 241.9 120.15 179.34 231.13 172.31 219.49 218.49 130.87 209.04 130.93 165.09 207.54 158.87 197.28 201.13 120.07"/>
    <polygon class="cls-2" points="185.14 240.59 204.96 273.25 251.38 194.6 238.27 170.78 261.08 130.92 274.59 130.92 253.24 169.82 259.12 181.26 294.04 120.07 253.4 120.07 225.41 170.68 238.37 194.07 205.42 248.63 198.47 239 224.48 194.38 218.87 182.49 185.14 240.59"/>
  </g>
</svg>