<svg width="165" height="32" viewBox="0 0 165 32" fill="none" xmlns="http://www.w3.org/2000/svg">
<path d="M104.41 8.52043H104.405C101.721 8.16756 99.6403 9.20424 98.216 11.6268L93.1002 21.6079V0.347656H87.7797V31.556H92.9174L101.907 14.1262C102.169 13.6271 102.56 13.4607 103.16 13.5795C103.366 13.6252 103.443 13.7258 103.487 13.8099C103.582 13.9891 103.63 14.1664 103.63 14.3511V31.5542H109V14.0549C109 12.7933 108.68 11.6195 108.047 10.5645C107.383 9.45839 106.16 8.76909 104.412 8.52043H104.41Z" fill="white"/>
<path d="M116.309 0.345703H110.989V31.554H116.309V0.345703Z" fill="white"/>
<path d="M151.231 24.4031L156.676 31.5538H163.02L154.431 20.1851L151.231 24.4031Z" fill="white"/>
<path d="M142.93 13.4785L144.069 14.9759L142.938 13.4785H142.93Z" fill="white"/>
<path d="M139.521 31.4712V8.85986H134.333L125.343 26.2896C125.078 26.7924 124.718 26.9552 124.138 26.8345C123.968 26.7961 123.857 26.7193 123.775 26.584C123.67 26.4103 123.621 26.2403 123.621 26.0629V8.85986H118.301V26.3591C118.301 27.6207 118.62 28.7963 119.253 29.8495C119.917 30.9556 121.124 31.6431 122.844 31.8954C123.19 31.9411 123.524 31.9631 123.85 31.9631C126.084 31.9631 127.839 30.9044 129.082 28.789L134.149 18.8647L134.123 31.5517H139.467L145.761 31.5535L151.193 24.4064L148 20.1811L139.519 31.4731L139.521 31.4712Z" fill="white"/>
<path d="M5.32053 8.97543L21.4558 31.5557H26.5826V0H21.3114V22.4925L5.09199 0H0V31.5557H5.32053V8.97543Z" fill="white"/>
<path d="M46.157 10.0775C44.3213 9.04085 42.3065 8.51611 40.1673 8.51611C38.0281 8.51611 35.9566 9.04085 34.1063 10.0775C32.2523 11.116 30.7695 12.555 29.6999 14.3577C28.6267 16.1623 28.0836 18.1479 28.0836 20.2579C28.0836 22.3678 28.6285 24.3479 29.7017 26.136C30.7732 27.9205 32.2541 29.3594 34.1044 30.4126C35.9547 31.4657 37.9952 31.9996 40.1691 31.9996C42.343 31.9996 44.3268 31.4657 46.1607 30.4108C47.9945 29.3595 49.4663 27.9205 50.5378 26.136C51.611 24.3479 52.154 22.3696 52.154 20.2579C52.154 18.1461 51.611 16.1623 50.5378 14.3577C49.4663 12.5568 47.9927 11.116 46.157 10.0794V10.0775ZM44.8973 25.2475C43.5662 26.6407 42.0194 27.3172 40.1673 27.3172C38.3152 27.3172 36.719 26.6407 35.3879 25.2475C34.0514 23.8488 33.4023 22.216 33.4023 20.256C33.4023 18.296 34.0697 16.5956 35.3879 15.2152C36.719 13.822 38.2822 13.1455 40.1673 13.1455C42.0523 13.1455 43.5662 13.822 44.8973 15.2152C46.2155 16.5956 46.8829 18.2905 46.8829 20.256C46.8829 22.2215 46.2338 23.8469 44.8973 25.2475Z" fill="white"/>
<path d="M84.6623 27.182C84.5088 27.2204 84.1742 27.2661 83.4483 27.2661C82.439 27.2661 81.651 27.1107 81.1062 26.8054C80.6217 26.405 80.3748 25.6919 80.3748 24.6955L80.3949 13.5443H84.6386L84.6221 8.90938H80.4041V6.06445H75.1439V8.90938H67.5434C65.1884 8.98252 63.5082 10.1545 62.5483 12.3942L59.4638 19.6291V8.90938H54.1433V31.5555H59.3048L66.1538 15.4019L66.2068 15.294C66.5341 14.6084 66.8614 14.1348 67.1795 13.8862C67.3423 13.7582 67.7939 13.5443 68.9805 13.5443H70.4578H75.1201L75.1 24.6863C75.1 27.129 75.9575 29.0104 77.6506 30.2811C79.137 31.3873 81.0861 31.9486 83.4447 31.9486C83.9127 31.9486 84.5069 31.9138 85.2364 31.8444L86.6205 31.6378V26.8328L84.6898 27.1784L84.6587 27.1857L84.6623 27.182Z" fill="white"/>
<path d="M163.077 8.78711H156.685L151.211 15.9744L149.31 13.4787H149.225H142.938L144.069 14.9761L148 20.1815L151.195 24.4068L151.211 24.4287L151.231 24.4031L154.431 20.1851L163.077 8.78711Z" fill="#2EB5AF"/>
<path d="M160.174 5.53628H159.594V3.49766H158.832V2.98389H160.936V3.49766H160.174V5.53628ZM162.777 4.9311H162.728L162.024 3.81213V5.53628H161.477V2.98389H162.09L162.761 4.06079L163.432 2.98389H164.028V5.53628H163.481V3.81213L162.777 4.9311Z" fill="white"/>
</svg>
