<svg width="258" height="120" viewBox="0 0 258 120" fill="none" xmlns="http://www.w3.org/2000/svg">
<path d="M95.6384 12.9805L110.079 12.9614C110.079 12.9614 116.138 7.9023 130.515 7.69203C144.891 7.48177 152.297 12.9805 152.297 12.9805H166.195C166.195 12.9805 151.117 -0.406337 129.947 0.0906518C108.778 0.594012 95.6384 12.9805 95.6384 12.9805Z" fill="#DDC062"/>
<path d="M115.315 105.287L108.931 94.5058C108.931 94.5058 99.089 90.4088 91.4542 78.2453C83.813 66.0755 84.6805 54.7849 84.6805 54.7849L77.473 44.2207C77.473 44.2207 73.123 65.5594 84.5338 83.3745C95.9381 101.196 115.315 105.287 115.315 105.287Z" fill="#DDC062"/>
<path d="M147.347 106.128L153.317 95.2705C153.317 95.2705 165.64 89.2939 172.516 76.678C179.391 64.0685 177.829 52.848 177.829 52.848L184.373 41.8633C184.373 41.8633 190.024 62.8961 179.729 81.3803C169.435 99.8644 147.341 106.128 147.341 106.128" fill="#DDC062"/>
<path d="M106.552 20.1611L102.578 27.0807H110.615L98.4192 49.7384L84.6804 27.0807H92.6341L88.4309 20.2121L72.0132 20.2248L98.3108 63.5648L123.161 20.2121L106.552 20.1611Z" fill="#DDC062"/>
<path d="M128.786 20.1611L154.79 20.2121L114.888 90.9247L110.404 83.5081L139.859 27.0425L133.831 27.0807L105.799 75.894L101.832 69.3566L128.786 20.1611Z" fill="#DDC062"/>
<path d="M118.587 96.9523L131.229 117.762L160.837 67.649L152.475 52.4718L167.024 27.0744H175.641L162.023 51.8601L165.774 59.1493L188.047 20.1611H162.126L144.273 52.4081L152.539 67.3114L131.523 102.075L127.09 95.9392L143.68 67.5089L140.101 59.933L118.587 96.9523Z" fill="#DDC062"/>
</svg>
