<?xml version="1.0" encoding="UTF-8"?>
<svg id="Layer_2" data-name="Layer 2" xmlns="http://www.w3.org/2000/svg" width="181.91" height="184.7" viewBox="0 0 181.91 184.7">
  <defs>
    <style>
      .cls-1 {
        fill: #ddc062;
      }
    </style>
  </defs>
  <g id="Layer_1-2" data-name="Layer 1">
    <g>
      <path class="cls-1" d="M37.04,20.25l22.64-.03s9.5-7.94,32.04-8.27c22.54-.33,34.15,8.3,34.15,8.3h21.79S124.02-.77,90.83.02c-33.19.79-53.79,20.23-53.79,20.23"/>
      <path class="cls-1" d="M67.88,165.12l-10.01-16.92s-15.43-6.43-27.4-25.52c-11.98-19.1-10.62-36.82-10.62-36.82l-11.3-16.58s-6.82,33.49,11.07,61.45c17.88,27.97,48.26,34.39,48.26,34.39"/>
      <path class="cls-1" d="M118.11,166.43l9.36-17.04s19.32-9.38,30.1-29.18c10.78-19.79,8.33-37.4,8.33-37.4l10.26-17.24s8.86,33.01-7.28,62.02c-16.14,29.01-50.78,38.84-50.78,38.84"/>
      <polygon class="cls-1" points="54.14 31.52 47.92 42.37 60.52 42.37 41.4 77.94 19.85 42.37 32.32 42.37 25.74 31.6 0 31.62 41.23 99.64 80.19 31.6 54.14 31.52"/>
      <polygon class="cls-1" points="89.01 31.52 129.77 31.6 67.21 142.58 60.19 130.94 106.37 42.31 96.92 42.37 52.97 118.98 46.75 108.73 89.01 31.52"/>
      <polygon class="cls-1" points="73.02 152.04 92.83 184.7 139.26 106.04 126.14 82.22 148.95 42.37 162.47 42.37 141.11 81.27 147 92.71 181.91 31.52 141.28 31.52 113.29 82.13 126.25 105.52 93.29 160.08 86.34 150.44 112.36 105.82 106.75 93.94 73.02 152.04"/>
    </g>
  </g>
</svg>